<svg width="20" height="20" viewBox="0 0 20 20" fill="none" xmlns="http://www.w3.org/2000/svg">
<path d="M7.21687 16.095C12.8775 16.095 15.9731 11.4056 15.9731 7.33875C15.9731 7.20562 15.9731 7.07312 15.9644 6.94125C16.5668 6.50541 17.0868 5.96572 17.5 5.3475C16.9384 5.59666 16.3426 5.76014 15.7325 5.8325C16.3748 5.44768 16.8554 4.84267 17.085 4.13C16.481 4.4884 15.8203 4.74099 15.1312 4.87687C14.6672 4.38346 14.0535 4.05673 13.3851 3.94725C12.7167 3.83777 12.0308 3.95163 11.4336 4.27122C10.8364 4.59081 10.3612 5.09831 10.0815 5.71519C9.80175 6.33208 9.73314 7.02395 9.88625 7.68375C8.66275 7.62242 7.46582 7.30451 6.37315 6.75064C5.28048 6.19676 4.31649 5.41931 3.54375 4.46875C3.15031 5.14629 3.02986 5.9483 3.20694 6.71152C3.38401 7.47474 3.84529 8.14179 4.49688 8.57687C4.00706 8.56225 3.52795 8.42998 3.1 8.19125V8.23062C3.10019 8.94112 3.34612 9.62969 3.79608 10.1796C4.24604 10.7294 4.87233 11.1067 5.56875 11.2475C5.11572 11.3709 4.64043 11.3889 4.17937 11.3C4.376 11.9115 4.75882 12.4463 5.2743 12.8295C5.78978 13.2128 6.41215 13.4253 7.05437 13.4375C6.41625 13.9389 5.68557 14.3095 4.90409 14.5283C4.12262 14.7471 3.30568 14.8097 2.5 14.7125C3.90722 15.6158 5.54467 16.0951 7.21687 16.0931" fill="#FF9A62"/>
</svg>
